REM DIRINDEX 1\2,1\3,1\4,1\5\6,1\5\7,1\8
REM DIRNAME cjc115,folder01,folder02,folder03,folder04,folder05,folder06,folder07
TITLE ""
FILE "091 Åy091ÅzUnit5 (1033 conversion_1044 skull).mp3" MP3
  TRACK 01 AUDIO
    TITLE "0:"
    INDEX 01 00:00:00
  TRACK 02 AUDIO
    TITLE "2:cjc115_3540"
    INDEX 01 00:00:07
  TRACK 03 AUDIO
    TITLE "0:"
    INDEX 01 00:01:32
  TRACK 04 AUDIO
    TITLE "3:cjc115_3541"
    INDEX 01 00:01:40
  TRACK 05 AUDIO
    TITLE "0:"
    INDEX 01 00:03:43
  TRACK 06 AUDIO
    TITLE "4:cjc115_3542"
    INDEX 01 00:03:45
  TRACK 07 AUDIO
    TITLE "0:"
    INDEX 01 00:07:23
  TRACK 08 AUDIO
    TITLE "2:cjc115_3543"
    INDEX 01 00:08:28
  TRACK 09 AUDIO
    TITLE "0:"
    INDEX 01 00:09:30
  TRACK 10 AUDIO
    TITLE "3:cjc115_3544"
    INDEX 01 00:09:36
  TRACK 11 AUDIO
    TITLE "0:"
    INDEX 01 00:11:72
  TRACK 12 AUDIO
    TITLE "4:cjc115_3545"
    INDEX 01 00:12:07
  TRACK 13 AUDIO
    TITLE "0:"
    INDEX 01 00:14:72
  TRACK 14 AUDIO
    TITLE "2:cjc115_3546"
    INDEX 01 00:16:06
  TRACK 15 AUDIO
    TITLE "0:"
    INDEX 01 00:17:33
  TRACK 16 AUDIO
    TITLE "3:cjc115_3547"
    INDEX 01 00:17:41
  TRACK 17 AUDIO
    TITLE "0:"
    INDEX 01 00:20:16
  TRACK 18 AUDIO
    TITLE "4:cjc115_3548"
    INDEX 01 00:20:22
  TRACK 19 AUDIO
    TITLE "0:"
    INDEX 01 00:23:38
  TRACK 20 AUDIO
    TITLE "2:cjc115_3549"
    INDEX 01 00:24:43
  TRACK 21 AUDIO
    TITLE "0:"
    INDEX 01 00:25:60
  TRACK 22 AUDIO
    TITLE "3:cjc115_3550"
    INDEX 01 00:25:62
  TRACK 23 AUDIO
    TITLE "0:"
    INDEX 01 00:27:26
  TRACK 24 AUDIO
    TITLE "4:cjc115_3551"
    INDEX 01 00:27:34
  TRACK 25 AUDIO
    TITLE "0:"
    INDEX 01 00:30:24
  TRACK 26 AUDIO
    TITLE "2:cjc115_3552"
    INDEX 01 00:31:33
  TRACK 27 AUDIO
    TITLE "0:"
    INDEX 01 00:32:62
  TRACK 28 AUDIO
    TITLE "3:cjc115_3553"
    INDEX 01 00:32:72
  TRACK 29 AUDIO
    TITLE "0:"
    INDEX 01 00:35:10
  TRACK 30 AUDIO
    TITLE "4:cjc115_3554"
    INDEX 01 00:35:14
  TRACK 31 AUDIO
    TITLE "0:"
    INDEX 01 00:38:39
  TRACK 32 AUDIO
    TITLE "2:cjc115_3555"
    INDEX 01 00:39:54
  TRACK 33 AUDIO
    TITLE "0:"
    INDEX 01 00:41:06
  TRACK 34 AUDIO
    TITLE "3:cjc115_3556"
    INDEX 01 00:41:18
  TRACK 35 AUDIO
    TITLE "0:"
    INDEX 01 00:42:51
  TRACK 36 AUDIO
    TITLE "4:cjc115_3557"
    INDEX 01 00:42:57
  TRACK 37 AUDIO
    TITLE "0:"
    INDEX 01 00:45:51
  TRACK 38 AUDIO
    TITLE "2:cjc115_3558"
    INDEX 01 00:46:58
  TRACK 39 AUDIO
    TITLE "0:"
    INDEX 01 00:47:70
  TRACK 40 AUDIO
    TITLE "3:cjc115_3559"
    INDEX 01 00:48:04
  TRACK 41 AUDIO
    TITLE "0:"
    INDEX 01 00:49:65
  TRACK 42 AUDIO
    TITLE "4:cjc115_3560"
    INDEX 01 00:50:01
  TRACK 43 AUDIO
    TITLE "0:"
    INDEX 01 00:53:47
  TRACK 44 AUDIO
    TITLE "2:cjc115_3561"
    INDEX 01 00:54:50
  TRACK 45 AUDIO
    TITLE "0:"
    INDEX 01 00:55:63
  TRACK 46 AUDIO
    TITLE "3:cjc115_3562"
    INDEX 01 00:56:04
  TRACK 47 AUDIO
    TITLE "0:"
    INDEX 01 00:57:07
  TRACK 48 AUDIO
    TITLE "4:cjc115_3563"
    INDEX 01 00:57:15
  TRACK 49 AUDIO
    TITLE "0:"
    INDEX 01 01:01:64
  TRACK 50 AUDIO
    TITLE "2:cjc115_3564"
    INDEX 01 01:02:73
  TRACK 51 AUDIO
    TITLE "0:"
    INDEX 01 01:04:17
  TRACK 52 AUDIO
    TITLE "3:cjc115_3565"
    INDEX 01 01:04:29
  TRACK 53 AUDIO
    TITLE "0:"
    INDEX 01 01:06:71
  TRACK 54 AUDIO
    TITLE "4:cjc115_3566"
    INDEX 01 01:07:04
  TRACK 55 AUDIO
    TITLE "0:"
    INDEX 01 01:10:35
  TRACK 56 AUDIO
    TITLE "2:cjc115_3567"
    INDEX 01 01:11:41
  TRACK 57 AUDIO
    TITLE "0:"
    INDEX 01 01:12:58
  TRACK 58 AUDIO
    TITLE "3:cjc115_3568"
    INDEX 01 01:12:66
  TRACK 59 AUDIO
    TITLE "0:"
    INDEX 01 01:16:12
  TRACK 60 AUDIO
    TITLE "4:cjc115_3569"
    INDEX 01 01:16:20
  TRACK 61 AUDIO
    TITLE "0:"
    INDEX 01 01:21:23
  TRACK 62 AUDIO
    TITLE "2:cjc115_3570"
    INDEX 01 01:22:31
  TRACK 63 AUDIO
    TITLE "0:"
    INDEX 01 01:23:50
  TRACK 64 AUDIO
    TITLE "3:cjc115_3571"
    INDEX 01 01:23:60
  TRACK 65 AUDIO
    TITLE "0:"
    INDEX 01 01:25:04
  TRACK 66 AUDIO
    TITLE "4:cjc115_3572"
    INDEX 01 01:25:13
  TRACK 67 AUDIO
    TITLE "0:"
    INDEX 01 01:29:25
  TRACK 68 AUDIO
    TITLE "2:cjc115_3573"
    INDEX 01 01:30:38
  TRACK 69 AUDIO
    TITLE "0:"
    INDEX 01 01:31:51
  TRACK 70 AUDIO
    TITLE "3:cjc115_3574"
    INDEX 01 01:31:61
  TRACK 71 AUDIO
    TITLE "0:"
    INDEX 01 01:33:11
  TRACK 72 AUDIO
    TITLE "4:cjc115_3575"
    INDEX 01 01:33:21
  TRACK 73 AUDIO
    TITLE "0:"
    INDEX 01 01:35:71
